<svg xmlns="http://www.w3.org/2000/svg" viewBox="0 0 480 360" width="480" height="360">
  <rect x="0" y="0" width="480" height="360" fill="#f7f7f8"/>
  <rect x="0" y="0" width="480" height="56" fill="#ffffff"/>
  <line x1="0" y1="56" x2="480" y2="56" stroke="#e4e4e7" stroke-width="1"/>
  <text x="16" y="34" font-family="-apple-system, sans-serif" font-size="16" font-weight="600" fill="#18181b">Main ▾</text>
  <rect x="120" y="20" width="100" height="24" rx="6" fill="#fafafa" stroke="#e4e4e7"/>
  <text x="135" y="36" font-family="-apple-system, sans-serif" font-size="12" fill="#71717a">Board</text>
  <rect x="170" y="24" width="46" height="16" rx="4" fill="#ffffff" stroke="#d4d4d8"/>
  <text x="180" y="36" font-family="-apple-system, sans-serif" font-size="12" font-weight="600" fill="#18181b">Reports</text>
  <text x="420" y="34" font-family="-apple-system, sans-serif" font-size="12" fill="#71717a">⚙</text>

  <!-- Tabs -->
  <rect x="16" y="76" width="120" height="32" rx="6" fill="#fafafa" stroke="#e4e4e7"/>
  <rect x="20" y="80" width="56" height="24" rx="4" fill="#ffffff" stroke="#d4d4d8"/>
  <text x="32" y="96" font-family="-apple-system, sans-serif" font-size="12" font-weight="600" fill="#18181b">Today</text>
  <text x="88" y="96" font-family="-apple-system, sans-serif" font-size="12" fill="#71717a">This week</text>

  <!-- Total -->
  <rect x="280" y="76" width="184" height="32" rx="6" fill="#ffffff" stroke="#e4e4e7"/>
  <text x="292" y="96" font-family="-apple-system, sans-serif" font-size="10" font-weight="600" fill="#71717a">TOTAL</text>
  <text x="332" y="96" font-family="ui-monospace, monospace" font-size="14" font-weight="600" fill="#18181b">02:14:30</text>
  <text x="430" y="96" font-family="-apple-system, sans-serif" font-size="10" fill="#a1a1aa">2h 14m</text>

  <!-- Per-board rollup -->
  <text x="16" y="138" font-family="-apple-system, sans-serif" font-size="10" font-weight="600" fill="#71717a">BY BOARD</text>
  <rect x="16" y="148" width="448" height="80" rx="6" fill="#ffffff" stroke="#e4e4e7"/>
  <text x="28" y="168" font-family="-apple-system, sans-serif" font-size="12" font-weight="500" fill="#18181b">Main</text>
  <rect x="120" y="160" width="200" height="6" rx="3" fill="#fafafa"/>
  <rect x="120" y="160" width="180" height="6" rx="3" fill="#6366f1"/>
  <text x="380" y="168" font-family="ui-monospace, monospace" font-size="11" fill="#18181b">02:14:30</text>
  <text x="440" y="168" font-family="-apple-system, sans-serif" font-size="10" fill="#a1a1aa">100%</text>

  <!-- Per-task list -->
  <text x="16" y="248" font-family="-apple-system, sans-serif" font-size="10" font-weight="600" fill="#71717a">BY TASK</text>
  <rect x="16" y="258" width="448" height="76" rx="6" fill="#ffffff" stroke="#e4e4e7"/>
  <text x="28" y="278" font-family="-apple-system, sans-serif" font-size="12" font-weight="500" fill="#18181b">Refactor the timer reducer</text>
  <text x="28" y="292" font-family="-apple-system, sans-serif" font-size="10" fill="#71717a">Main › In Progress</text>
  <rect x="280" y="278" width="80" height="6" rx="3" fill="#fafafa"/>
  <rect x="280" y="278" width="64" height="6" rx="3" fill="#6366f1"/>
  <text x="380" y="288" font-family="ui-monospace, monospace" font-size="11" fill="#18181b">01:23:45</text>
  <text x="440" y="288" font-family="-apple-system, sans-serif" font-size="10" fill="#a1a1aa">62%</text>
</svg>
